<?xml version="1.0" encoding="UTF-8" standalone="no"?>
<svg
   width="277.55432"
   height="77.964691"
   viewBox="0 0 277.55432 77.964691"
   fill="none"
   version="1.1"
   id="svg20"
   sodipodi:docname="bmcButton.svg"
   inkscape:version="1.3 (1:1.3+202307231459+0e150ed6c4)"
   xmlns:inkscape="http://www.inkscape.org/namespaces/inkscape"
   xmlns:sodipodi="http://sodipodi.sourceforge.net/DTD/sodipodi-0.dtd"
   xmlns="http://www.w3.org/2000/svg"
   xmlns:svg="http://www.w3.org/2000/svg">
  <defs
     id="defs20" />
  <sodipodi:namedview
     id="namedview20"
     pagecolor="#ffffff"
     bordercolor="#000000"
     borderopacity="0.25"
     inkscape:showpageshadow="2"
     inkscape:pageopacity="0.0"
     inkscape:pagecheckerboard="0"
     inkscape:deskcolor="#d1d1d1"
     inkscape:zoom="2.133945"
     inkscape:cx="160.03224"
     inkscape:cy="64.200344"
     inkscape:window-width="1920"
     inkscape:window-height="1004"
     inkscape:window-x="307"
     inkscape:window-y="1080"
     inkscape:window-maximized="1"
     inkscape:current-layer="svg20" />
  <path
     d="M 0,12.474351 C 0,5.584973 5.5849727,0 12.474351,0 H 265.07995 c 6.88943,0 12.47436,5.584973 12.47436,12.474351 v 53.015992 c 0,6.88943 -5.58493,12.47435 -12.47436,12.47435 H 12.474351 C 5.5849727,77.964693 0,72.379773 0,65.490343 Z"
     fill="#ffdd00"
     id="path1"
     style="stroke-width:0.509573" />
  <path
     d="m 55.809471,25.640603 -0.03414,-0.0201 -0.07949,-0.0242 c 0.0321,0.0269 0.07185,0.0425 0.113635,0.0443 z"
     fill="#0d0c22"
     id="path2"
     style="stroke-width:0.509573" />
  <path
     d="m 56.3114,29.205373 -0.03822,0.0107 z"
     fill="#0d0c22"
     id="path3"
     style="stroke-width:0.509573" />
  <path
     d="m 55.823229,25.634693 c -0.0046,-5.6e-4 -0.0087,-0.002 -0.01274,-0.003 -5.09e-4,0.003 -5.09e-4,0.006 0,0.008 0.0046,-6.1e-4 0.0087,-0.002 0.01274,-0.005 z"
     fill="#0d0c22"
     id="path4"
     style="stroke-width:0.509573" />
  <path
     d="m 55.809981,25.641973 h 0.0066 v -0.004 z"
     fill="#0d0c22"
     id="path5"
     style="stroke-width:0.509573" />
  <path
     d="m 56.280826,29.198843 0.05758,-0.0329 0.0214,-0.0121 0.01936,-0.0208 c -0.03618,0.0158 -0.06981,0.0381 -0.09835,0.0658 z"
     fill="#0d0c22"
     id="path6"
     style="stroke-width:0.509573" />
  <path
     d="m 55.907819,25.718823 -0.05656,-0.0537 -0.03822,-0.0208 c 0.02089,0.0363 0.05452,0.063 0.09478,0.0745 z"
     fill="#0d0c22"
     id="path7"
     style="stroke-width:0.509573" />
  <path
     d="m 41.723901,60.309513 c -0.0451,0.0194 -0.08454,0.0499 -0.114807,0.0887 l 0.03557,-0.0229 c 0.02415,-0.0219 0.0584,-0.0484 0.07924,-0.0657 z"
     fill="#0d0c22"
     id="path8"
     style="stroke-width:0.509573" />
  <path
     d="m 49.961406,58.689073 c 0,-0.051 -0.02487,-0.0418 -0.0188,0.13962 0,-0.0148 0.0061,-0.0296 0.0087,-0.0438 0.0034,-0.0321 0.0061,-0.0637 0.01009,-0.0958 z"
     fill="#0d0c22"
     id="path9"
     style="stroke-width:0.509573" />
  <path
     d="m 49.110673,60.309513 c -0.04505,0.0194 -0.08449,0.0499 -0.114756,0.0887 l 0.03557,-0.0229 c 0.02415,-0.0219 0.0584,-0.0484 0.07919,-0.0657 z"
     fill="#0d0c22"
     id="path10"
     style="stroke-width:0.509573" />
  <path
     d="m 35.919098,60.695263 c -0.03419,-0.0296 -0.07608,-0.0494 -0.12082,-0.0566 0.03623,0.0178 0.07246,0.0352 0.09667,0.0484 z"
     fill="#0d0c22"
     id="path11"
     style="stroke-width:0.509573" />
  <path
     d="m 34.615508,59.445273 c -0.0053,-0.053 -0.02155,-0.10395 -0.04764,-0.15032 0.0185,0.0479 0.03394,0.0973 0.04632,0.14778 z"
     fill="#0d0c22"
     id="path12"
     style="stroke-width:0.509573" />
  <path
     d="m 43.383428,37.083523 c -1.792322,0.76727 -3.826283,1.63721 -6.462356,1.63721 -1.102767,-0.002 -2.200133,-0.15348 -3.262389,-0.44975 l 1.823201,18.71866 c 0.06451,0.78219 0.420959,1.5119 0.998458,2.04339 0.577499,0.53199 1.333859,0.82704 2.118907,0.82653 0,0 2.585065,0.13452 3.44767,0.13452 0.928341,0 3.712139,-0.13452 3.712139,-0.13452 0.784895,0 1.541102,-0.29505 2.118499,-0.82653 0.577347,-0.532 0.933691,-1.2612 0.998203,-2.04339 l 1.952735,-20.6848 c -0.872644,-0.29805 -1.753339,-0.49607 -2.746191,-0.49607 -1.717109,-6.6e-4 -3.1006,0.5907 -4.698876,1.27475 z"
     fill="#ffffff"
     id="path13"
     style="stroke-width:0.509573" />
  <path
     d="m 28.018574,29.097693 0.03088,0.0289 0.02013,0.0121 c -0.01549,-0.0154 -0.03261,-0.0291 -0.05101,-0.0409 z"
     fill="#0d0c22"
     id="path14"
     style="stroke-width:0.509573" />
  <path
     d="m 59.262848,27.370143 -0.27415,-1.38482 c -0.246634,-1.242539 -0.805635,-2.416596 -2.081097,-2.865683 -0.408678,-0.143648 -0.872899,-0.205409 -1.186286,-0.502745 -0.313388,-0.297387 -0.40613,-0.759213 -0.478489,-1.187509 -0.134018,-0.786067 -0.260392,-1.572797 -0.397977,-2.357489 -0.118731,-0.674624 -0.213002,-1.432512 -0.522313,-2.051389 -0.402562,-0.831063 -1.238262,-1.317043 -2.069376,-1.638583 -0.426003,-0.158987 -0.860669,-0.293463 -1.301756,-0.402767 -2.076256,-0.547791 -4.259216,-0.749174 -6.395245,-0.86393 -2.563764,-0.141458 -5.134408,-0.09886 -7.692108,0.127546 -1.903715,0.173153 -3.908783,0.382638 -5.71787,1.041109 -0.661222,0.241028 -1.342521,0.530313 -1.845317,1.04116 -0.616889,0.627641 -0.818273,1.598327 -0.367861,2.38098 0.320216,0.555843 0.862606,0.94852 1.437863,1.2083 0.749327,0.334739 1.531879,0.589423 2.33466,0.759876 2.235345,0.494082 4.55059,0.688076 6.834242,0.770627 2.531101,0.10217 5.066329,0.01936 7.585353,-0.247703 0.622954,-0.06844 1.244786,-0.150579 1.865497,-0.246328 0.730982,-0.112106 1.200197,-1.068014 0.98475,-1.733925 -0.257793,-0.796106 -0.950507,-1.104907 -1.733925,-0.98475 -0.115418,0.01814 -0.230225,0.03491 -0.345694,0.05172 l -0.08321,0.01208 c -0.265386,0.03353 -0.530772,0.06487 -0.796157,0.09396 -0.548199,0.05906 -1.097723,0.107418 -1.648623,0.144974 -1.233778,0.08591 -2.470971,0.125559 -3.70745,0.127546 -1.214975,0 -2.430664,-0.03424 -3.642989,-0.114094 -0.553142,-0.03628 -1.104908,-0.08235 -1.655349,-0.138298 -0.250404,-0.02619 -0.500095,-0.05371 -0.749837,-0.08459 l -0.237614,-0.03022 -0.05167,-0.0073 -0.246379,-0.03562 c -0.503458,-0.07582 -1.006917,-0.163114 -1.504973,-0.268494 -0.05024,-0.01116 -0.09524,-0.03908 -0.127445,-0.07924 -0.0322,-0.04015 -0.04978,-0.09014 -0.04978,-0.141611 0,-0.05147 0.01758,-0.101405 0.04978,-0.141559 0.03221,-0.04015 0.0772,-0.06813 0.127445,-0.07929 h 0.0094 c 0.431659,-0.09198 0.866631,-0.170503 1.302927,-0.238989 0.145484,-0.02278 0.291374,-0.0452 0.437673,-0.06711 h 0.004 c 0.273234,-0.01814 0.547792,-0.06711 0.819649,-0.09937 2.365337,-0.246022 4.744737,-0.329898 7.121539,-0.251016 1.153878,0.03353 2.307144,0.101354 3.455671,0.218148 0.247041,0.02553 0.492757,0.05239 0.738422,0.08255 0.09397,0.01141 0.188644,0.02487 0.283272,0.03628 l 0.190631,0.02752 c 0.555843,0.08276 1.10873,0.183242 1.658712,0.301412 0.81496,0.177179 1.861267,0.234914 2.224083,1.127737 0.115163,0.283271 0.167649,0.598086 0.231346,0.895473 l 0.08153,0.379224 c 0.002,0.0068 0.0036,0.01381 0.0046,0.02084 0.192109,0.895014 0.384218,1.790028 0.576327,2.685093 0.01427,0.06609 0.01478,0.134426 10e-4,0.20067 -0.01325,0.06624 -0.04026,0.129024 -0.07898,0.184364 -0.03873,0.05539 -0.08867,0.102169 -0.146247,0.137432 -0.05758,0.03526 -0.122298,0.05824 -0.189052,0.06757 h -0.0056 l -0.117202,0.0161 -0.116182,0.01544 c -0.367912,0.0479 -0.736334,0.09264 -1.104959,0.134272 -0.726295,0.08276 -1.45371,0.154401 -2.182298,0.214785 -1.447697,0.120412 -2.898299,0.199396 -4.351857,0.236952 -0.740613,0.01972 -1.481023,0.02889 -2.221229,0.02752 -2.946199,-0.0023 -5.88985,-0.17351 -8.816482,-0.512835 -0.316852,-0.03761 -0.633654,-0.07786 -0.950507,-0.118832 0.245666,0.03159 -0.178554,-0.02415 -0.264468,-0.03623 -0.201383,-0.02818 -0.402767,-0.05748 -0.60415,-0.08795 -0.676,-0.101354 -1.347923,-0.2262 -2.022547,-0.335605 -0.815623,-0.134272 -1.595626,-0.06711 -2.333335,0.335605 -0.605577,0.331375 -1.095684,0.839573 -1.404995,1.456666 -0.318178,0.657863 -0.412806,1.374113 -0.555129,2.080943 -0.142324,0.70688 -0.363836,1.46742 -0.279909,2.19305 0.180542,1.56607 1.275411,2.83883 2.850196,3.12343 1.481482,0.2685 2.971066,0.48603 4.464625,0.67126 5.867123,0.7186 11.794478,0.80457 17.679946,0.25647 0.479305,-0.0448 0.957947,-0.0936 1.435672,-0.14635 0.149304,-0.0164 0.300648,7.7e-4 0.442309,0.0503 0.141661,0.0495 0.270583,0.13014 0.377084,0.23593 0.106501,0.10584 0.188542,0.23415 0.23899,0.37555 0.05045,0.14141 0.06879,0.29235 0.05351,0.44175 l -0.149305,1.44857 c -0.300138,2.92719 -0.600277,5.85418 -0.900416,8.78091 -0.313387,3.07354 -0.628762,6.14688 -0.946022,9.21971 -0.08953,0.86576 -0.179013,1.73102 -0.268545,2.59627 -0.08591,0.8515 -0.09799,1.73051 -0.259781,2.57233 -0.255041,1.32336 -1.151227,2.13664 -2.458843,2.43372 -1.198006,0.27262 -2.421797,0.41581 -3.650378,0.42702 -1.361987,0.007 -2.723363,-0.053 -4.08535,-0.0459 -1.453965,0.008 -3.234872,-0.12586 -4.357258,-1.2082 -0.986075,-0.95035 -1.122335,-2.43881 -1.256608,-3.72549 -0.179013,-1.7035 -0.356446,-3.407 -0.5323,-5.11051 l -0.986788,-9.47082 -0.638393,-6.12808 c -0.0107,-0.10135 -0.02145,-0.20138 -0.03154,-0.3034 -0.07649,-0.73098 -0.59406,-1.44657 -1.409632,-1.40968 -0.698166,0.0309 -1.491572,0.62428 -1.409683,1.40968 l 0.47324,4.54315 0.978687,9.39786 c 0.278838,2.6696 0.556963,5.33925 0.834426,8.00942 0.05371,0.51161 0.104054,1.02475 0.160413,1.53585 0.306763,2.79552 2.441416,4.30182 5.084878,4.72578 1.543956,0.24867 3.125467,0.29963 4.6922,0.32511 2.008432,0.0321 4.037043,0.10956 6.012607,-0.25428 2.927396,-0.53709 5.123758,-2.49181 5.437145,-5.52428 0.08969,-0.87494 0.17937,-1.75089 0.268546,-2.62634 0.29759,-2.89641 0.594671,-5.79298 0.891753,-8.68975 l 0.970227,-9.46497 0.445367,-4.33774 c 0.02191,-0.21509 0.113125,-0.41734 0.258863,-0.57678 0.146247,-0.15945 0.339885,-0.26768 0.551868,-0.3086 0.837228,-0.16317 1.637258,-0.4417 2.232949,-1.07877 0.947806,-1.0143 1.136348,-2.33669 0.801049,-3.66984 z m -31.488461,0.93578 c 0.01274,-0.006 -0.01075,0.10334 -0.02079,0.1544 -0.002,-0.0772 0.002,-0.14569 0.02079,-0.1544 z m 0.08123,0.6283 c 0.0067,-0.005 0.02685,0.0222 0.04764,0.0544 -0.03154,-0.0296 -0.05167,-0.0517 -0.04831,-0.0544 z m 0.0799,0.10538 c 0.02884,0.049 0.04428,0.0799 0,0 z m 0.160413,0.13025 h 0.004 c 0,0.005 0.0074,0.009 0.01009,0.0141 -0.0045,-0.005 -0.0094,-0.01 -0.01478,-0.0141 z m 28.094195,-0.19471 c -0.300648,0.28597 -0.754168,0.41892 -1.201573,0.48537 -5.021232,0.7451 -10.115537,1.12234 -15.191701,0.95586 -3.6329,-0.12418 -7.227582,-0.52761 -10.824251,-1.03576 -0.352421,-0.0497 -0.734346,-0.11409 -0.976699,-0.37387 -0.456476,-0.49006 -0.232263,-1.47685 -0.113431,-2.06887 0.108743,-0.54239 0.316853,-1.26537 0.961921,-1.34257 1.006917,-0.11812 2.176285,0.30676 3.17245,0.4578 1.199331,0.18304 2.403147,0.32959 3.611447,0.43971 5.156676,0.46988 10.39998,0.3967 15.533879,-0.29066 0.935576,-0.12577 1.868095,-0.27186 2.797047,-0.43834 0.828056,-0.14839 1.745288,-0.42692 2.245689,0.43029 0.342942,0.58397 0.388294,1.36535 0.335299,2.02519 -0.01631,0.2875 -0.141662,0.55793 -0.351096,0.75585 z"
     fill="#0d0c22"
     id="path15"
     style="stroke-width:0.509573" />
  <path
     fill-rule="evenodd"
     clip-rule="evenodd"
     d="m 86.645781,42.926293 c -0.293005,0.55956 -0.696077,1.04692 -1.209217,1.46043 -0.513141,0.41383 -1.111379,0.75076 -1.795736,1.01018 -0.683847,0.26004 -1.372281,0.43451 -2.064281,0.52344 -0.69251,0.0893 -1.364637,0.0815 -2.015362,-0.0244 -0.651744,-0.10528 -1.206159,-0.32022 -1.661718,-0.64512 l 0.51365,-5.331 c 0.471865,-0.1621 1.066027,-0.32858 1.782996,-0.49903 0.71646,-0.1702 1.453303,-0.29219 2.211038,-0.36506 0.757736,-0.0732 1.473686,-0.0646 2.149889,0.0244 0.675694,0.0892 1.209217,0.30417 1.60006,0.64512 0.211983,0.19456 0.391352,0.40552 0.5376,0.63279 0.146757,0.22732 0.235932,0.46264 0.269054,0.70601 0.08102,0.68156 -0.02446,1.30232 -0.317973,1.86224 z m -7.451488,-11.35594 c 0.341923,-0.21091 0.753658,-0.39778 1.233676,-0.56023 0.480528,-0.16179 0.973285,-0.27578 1.478272,-0.3406 0.504477,-0.0646 0.997235,-0.0732 1.478272,-0.0244 0.480017,0.0488 0.903982,0.18252 1.270365,0.40149 0.366384,0.21927 0.639005,0.53581 0.818375,0.94933 0.17886,0.41413 0.227779,0.93757 0.146247,1.57035 -0.06472,0.50311 -0.264978,0.92926 -0.598238,1.27796 -0.333771,0.34926 -0.741429,0.6411 -1.221447,0.87647 -0.480528,0.23563 -0.989591,0.42213 -1.526681,0.55956 -0.53811,0.13835 -1.055326,0.23996 -1.551651,0.30452 -0.496834,0.0652 -0.928442,0.10594 -1.294825,0.12169 -0.366383,0.0164 -0.606902,0.0244 -0.721046,0.0244 z m 10.090058,7.91127 c -0.260392,-0.56766 -0.610469,-1.06674 -1.050231,-1.49722 -0.439761,-0.42988 -0.961564,-0.7421 -1.56388,-0.93696 0.260392,-0.21096 0.517217,-0.54356 0.769965,-0.99815 0.252239,-0.45398 0.467788,-0.94933 0.647158,-1.48484 0.17886,-0.53582 0.301668,-1.07505 0.366383,-1.61887 0.06472,-0.54356 0.04026,-1.01017 -0.07287,-1.39995 -0.277717,-0.97338 -0.712893,-1.73621 -1.307564,-2.28808 -0.594672,-0.55156 -1.286673,-0.93298 -2.076511,-1.1442 -0.790348,-0.2103 -1.661208,-0.2554 -2.61411,-0.13371 -0.952902,0.12164 -1.926187,0.36098 -2.919345,0.71799 0,-0.0809 0.0082,-0.16612 0.02446,-0.2554 0.0158,-0.0889 0.02395,-0.18253 0.02395,-0.28011 0,-0.24332 -0.121788,-0.45398 -0.366384,-0.63279 -0.244085,-0.1785 -0.52486,-0.28378 -0.842324,-0.31655 -0.317974,-0.0321 -0.627284,0.0364 -0.928952,0.20694 -0.301158,0.17045 -0.509063,0.48333 -0.622698,0.93695 -0.130451,1.4608 -0.260902,2.97836 -0.390843,4.55217 -0.130451,1.57438 -0.269054,3.16486 -0.415302,4.7717 -0.146757,1.60648 -0.293514,3.20098 -0.439762,4.78311 -0.146757,1.58242 -0.293514,3.1037 -0.439761,4.56414 0.04892,0.43823 0.170707,0.77919 0.366383,1.02256 0.195166,0.24363 0.423455,0.38972 0.683847,0.43823 0.260392,0.0488 0.533523,0.004 0.818375,-0.13406 0.284851,-0.13744 0.533523,-0.37739 0.745505,-0.71799 0.651235,0.357 1.38451,0.5883 2.198808,0.69393 0.814298,0.10528 1.640316,0.10528 2.480093,0 0.838248,-0.10563 1.664775,-0.30421 2.479073,-0.59666 0.814298,-0.29188 1.555727,-0.65719 2.223268,-1.09512 0.66805,-0.43823 1.2296,-0.93761 1.686177,-1.49718 0.455559,-0.56022 0.757226,-1.16463 0.903474,-1.81347 0.146757,-0.6655 0.187523,-1.33069 0.122297,-1.99625 -0.06522,-0.6652 -0.228289,-1.28163 -0.488679,-1.85016 z"
     fill="#0d0c23"
     id="path16"
     style="stroke-width:0.509573" />
  <path
     fill-rule="evenodd"
     clip-rule="evenodd"
     d="m 113.11963,52.334183 c -0.0892,0.53556 -0.21605,1.09966 -0.37861,1.69229 -0.16306,0.59162 -0.35415,1.13176 -0.57378,1.61892 -0.22013,0.48664 -0.46422,0.87952 -0.73276,1.18017 -0.26906,0.30014 -0.5585,0.426 -0.86781,0.37759 -0.24408,-0.0331 -0.39899,-0.18701 -0.46371,-0.46269 -0.0657,-0.27619 -0.0657,-0.61709 0,-1.02221 0.0647,-0.40612 0.19058,-0.86474 0.37811,-1.37584 0.18752,-0.5111 0.41581,-1.01864 0.68435,-1.52108 0.26906,-0.50346 0.57429,-0.98602 0.91621,-1.44872 0.34193,-0.46208 0.70016,-0.84782 1.07469,-1.15601 0.0815,0.0973 0.11823,0.34065 0.11007,0.73037 -0.009,0.38947 -0.0571,0.85216 -0.14676,1.38721 z m 8.28261,-10.56462 c -0.22014,-0.24338 -0.48868,-0.38111 -0.80666,-0.41383 -0.31746,-0.0325 -0.63951,0.14605 -0.96462,0.53551 -0.21198,0.38942 -0.48104,0.76278 -0.80665,1.11979 -0.32562,0.35731 -0.66347,0.6816 -1.01354,0.97374 -0.35059,0.29183 -0.68436,0.54382 -1.00183,0.75448 -0.31746,0.21121 -0.56613,0.36531 -0.74499,0.46259 -0.0652,-0.51911 -0.10243,-1.07902 -0.11007,-1.67971 -0.009,-0.60038 0.004,-1.20876 0.0367,-1.82549 0.0484,-0.87642 0.15032,-1.76063 0.30523,-2.65345 0.15491,-0.89247 0.37862,-1.76894 0.67213,-2.62935 0,-0.45398 -0.1065,-0.82332 -0.31797,-1.10746 -0.21198,-0.28378 -0.4683,-0.46259 -0.76946,-0.53551 -0.30167,-0.0729 -0.61047,-0.0324 -0.92844,0.12169 -0.31746,0.1544 -0.59009,0.43451 -0.81837,0.83973 -0.19517,0.53581 -0.41938,1.13614 -0.67162,1.80139 -0.25275,0.6655 -0.5376,1.34308 -0.85507,2.03269 -0.31797,0.69021 -0.67212,1.35943 -1.06297,2.00833 -0.39084,0.64945 -0.81837,1.22572 -1.28259,1.72847 -0.46422,0.5031 -0.96921,0.89685 -1.51445,1.18068 -0.54626,0.28409 -1.13584,0.4098 -1.77128,0.37739 -0.29351,-0.0812 -0.5055,-0.30019 -0.63544,-0.6575 -0.13045,-0.35671 -0.2079,-0.8033 -0.23185,-1.33881 -0.0245,-0.53551 0,-1.12381 0.0729,-1.76495 0.0734,-0.64079 0.17121,-1.27791 0.29351,-1.9107 0.12179,-0.63309 0.25632,-1.23347 0.40256,-1.80139 0.14676,-0.56792 0.28486,-1.04692 0.41531,-1.43633 0.19567,-0.47039 0.19567,-0.86444 0,-1.18069 -0.19517,-0.31654 -0.46372,-0.52715 -0.80564,-0.63309 -0.34192,-0.10528 -0.70066,-0.101 -1.0752,0.0124 -0.37453,0.11364 -0.64359,0.36501 -0.80614,0.75443 -0.27721,0.66586 -0.52996,1.41197 -0.75774,2.23962 -0.22778,0.8277 -0.41122,1.68404 -0.54932,2.56825 -0.1386,0.88477 -0.21657,1.76124 -0.23236,2.62935 -0.001,0.0565 0.002,0.11022 0.002,0.16642 -0.35517,0.94348 -0.69352,1.65657 -1.01506,2.13374 -0.41531,0.61699 -0.88411,0.88477 -1.4049,0.80324 -0.2288,-0.0973 -0.37861,-0.32429 -0.45199,-0.68161 -0.0739,-0.3567 -0.0978,-0.79488 -0.0739,-1.31464 0.025,-0.51885 0.0861,-1.10715 0.18345,-1.76466 0.0983,-0.65719 0.21962,-1.33875 0.36638,-2.04476 0.14676,-0.70627 0.30167,-1.41564 0.46422,-2.12996 0.16307,-0.71402 0.30931,-1.38757 0.44027,-2.02067 -0.0163,-0.56792 -0.18344,-1.00182 -0.50142,-1.30231 -0.31695,-0.29989 -0.7613,-0.41755 -1.331001,-0.35298 -0.390843,0.1624 -0.68028,0.37367 -0.867293,0.63309 -0.187523,0.25937 -0.338357,0.59233 -0.451992,0.9978 -0.06574,0.21126 -0.163063,0.63309 -0.293514,1.26618 -0.130451,0.63249 -0.297081,1.35919 -0.50091,2.17848 -0.20332,0.81995 -0.443839,1.67573 -0.720537,2.5682 -0.276698,0.89251 -0.586518,1.70044 -0.927933,2.42215 -0.342433,0.72207 -0.716969,1.30232 -1.124118,1.74055 -0.407149,0.43793 -0.84691,0.61674 -1.319285,0.53551 -0.260901,-0.0488 -0.427532,-0.31655 -0.50091,-0.80324 -0.07338,-0.48705 -0.0851,-1.08707 -0.03669,-1.80139 0.04892,-0.71402 0.146757,-1.49723 0.293004,-2.34898 0.146757,-0.85206 0.297081,-1.65932 0.451991,-2.42241 0.154911,-0.76253 0.297591,-1.43638 0.428042,-2.02036 0.129941,-0.58432 0.219626,-0.97374 0.268545,-1.16829 0,-0.47065 -0.106501,-0.84773 -0.317464,-1.13217 -0.211983,-0.28353 -0.468298,-0.46234 -0.769965,-0.53551 -0.301667,-0.0729 -0.610978,-0.0324 -0.927933,0.12168 -0.317973,0.1544 -0.590595,0.43451 -0.818884,0.83968 -0.08153,0.43823 -0.187523,0.94566 -0.317464,1.52163 -0.130451,0.57592 -0.256315,1.1683 -0.378613,1.77699 -0.122297,0.60868 -0.236442,1.20503 -0.341923,1.78931 -0.105992,0.58433 -0.183447,1.09543 -0.232366,1.53366 -0.03261,0.34065 -0.0693,0.75881 -0.109558,1.25355 -0.04127,0.49536 -0.06166,1.01849 -0.06166,1.57005 0,0.55222 0.04077,1.09976 0.122807,1.64327 0.08102,0.54387 0.227779,1.04294 0.439252,1.49692 0.211473,0.45459 0.509063,0.82765 0.892262,1.11979 0.38218,0.29214 0.866784,0.45428 1.453303,0.48705 0.602316,0.0321 1.127685,-0.0121 1.57611,-0.13407 0.447405,-0.12168 0.854554,-0.31252 1.221447,-0.57225 0.366383,-0.25912 0.700153,-0.56761 1.001821,-0.92493 0.300648,-0.3567 0.598238,-0.74611 0.891243,-1.16829 0.277208,0.61704 0.635438,1.09543 1.075199,1.43633 0.439762,0.34065 0.903983,0.54387 1.392667,0.60843 0.48817,0.0645 0.98551,-0.004 1.4905,-0.20694 0.50448,-0.2026 0.96055,-0.54753 1.3677,-1.03458 0.26854,-0.29861 0.52129,-0.63804 0.75875,-1.01324 0.1009,0.1757 0.20791,0.34524 0.32867,0.50183 0.399,0.51976 0.94068,0.87646 1.62503,1.07133 0.73277,0.19486 1.44872,0.22762 2.14938,0.0976 0.70016,-0.12969 1.36821,-0.36531 2.00314,-0.70596 0.63543,-0.34096 1.22552,-0.75045 1.77178,-1.22945 0.54524,-0.47869 1.0217,-0.97746 1.42884,-1.49718 -0.0163,0.37337 -0.0245,0.72665 -0.0245,1.05895 0,0.3329 -0.008,0.69363 -0.0239,1.08335 -0.8148,0.56827 -1.58426,1.24983 -2.30887,2.04476 -0.72512,0.79494 -1.36056,1.64297 -1.9058,2.54369 -0.54576,0.90042 -0.97329,1.81357 -1.28209,2.73845 -0.30982,0.92538 -0.46066,1.78962 -0.4525,2.59321 0.008,0.80309 0.19924,1.50477 0.57429,2.10505 0.37402,0.60079 0.985,1.03036 1.83191,1.29024 0.88004,0.27619 1.65306,0.28383 2.32162,0.0245 0.66754,-0.25988 1.24947,-0.68996 1.7463,-1.29024 0.49684,-0.60028 0.90399,-1.32642 1.22196,-2.17843 0.31747,-0.852 0.5697,-1.7407 0.75723,-2.66557 0.18701,-0.92488 0.30523,-1.83447 0.35415,-2.72637 0.0489,-0.89282 0.0489,-1.68837 0,-2.38598 1.40082,-0.58402 2.54889,-1.32244 3.44471,-2.21526 0.89583,-0.89186 1.63675,-1.8335 2.22327,-2.8236 0.17886,-0.24337 0.24001,-0.53551 0.18345,-0.87616 -0.0576,-0.3409 -0.19568,-0.63309 -0.4153,-0.87641 z"
     fill="#0d0c23"
     id="path17"
     style="stroke-width:0.509573" />
  <path
     fill-rule="evenodd"
     clip-rule="evenodd"
     d="m 152.22173,40.212203 c 0.0489,-0.37306 0.1223,-0.76681 0.21963,-1.18063 0.0978,-0.41383 0.22013,-0.81562 0.36689,-1.20504 0.14625,-0.38942 0.31746,-0.72604 0.51314,-1.01018 0.19517,-0.28383 0.40307,-0.48669 0.6227,-0.60868 0.22013,-0.12138 0.44333,-0.10936 0.67212,0.0364 0.24409,0.1464 0.39441,0.45459 0.452,0.92493 0.0566,0.47125 0,0.97405 -0.17122,1.50956 -0.17122,0.53581 -0.47645,1.03856 -0.91621,1.50925 -0.43976,0.47095 -1.03444,0.77883 -1.78351,0.92493 -0.0326,-0.22666 -0.0245,-0.52716 0.0245,-0.90057 z m 8.46503,0.99784 c -0.26855,-0.0806 -0.52486,-0.0889 -0.76946,-0.0241 -0.24408,0.0649 -0.39899,0.23532 -0.46371,0.51146 -0.13096,0.5191 -0.33886,1.05059 -0.62371,1.59415 -0.28486,0.54387 -0.63493,1.05894 -1.04973,1.54599 -0.4153,0.4867 -0.8841,0.91693 -1.40489,1.28999 -0.5218,0.37336 -1.06704,0.64109 -1.63726,0.80324 -0.57021,0.17881 -1.04258,0.19888 -1.41661,0.0608 -0.37505,-0.13743 -0.67213,-0.37306 -0.89175,-0.70566 -0.22014,-0.33259 -0.37913,-0.73439 -0.47645,-1.20503 -0.0978,-0.4707 -0.15491,-0.95739 -0.17122,-1.4608 0.92844,0.0652 1.75497,-0.10094 2.48009,-0.49902 0.72411,-0.39716 1.33916,-0.92498 1.84415,-1.58218 0.50447,-0.65714 0.88767,-1.39556 1.14807,-2.21521 0.26039,-0.81929 0.40714,-1.63492 0.43976,-2.44651 0.0163,-0.76284 -0.0973,-1.40765 -0.34193,-1.93511 -0.24408,-0.5272 -0.57429,-0.93761 -0.98959,-1.22945 -0.41479,-0.29213 -0.89175,-0.46264 -1.42884,-0.5111 -0.53709,-0.0488 -1.08335,0.0244 -1.63726,0.21897 -0.66805,0.22727 -1.23368,0.5963 -1.6979,1.10776 -0.46422,0.5111 -0.85098,1.10373 -1.1603,1.77698 -0.30931,0.67355 -0.5539,1.39959 -0.73276,2.17848 -0.17937,0.77913 -0.30982,1.54599 -0.39084,2.30077 -0.0734,0.67722 -0.11262,1.32484 -0.12638,1.94993 -0.0352,0.0793 -0.0688,0.15563 -0.10599,0.24057 -0.25275,0.57658 -0.54626,1.14048 -0.87952,1.69204 -0.33377,0.55192 -0.70474,1.01451 -1.11138,1.38757 -0.40715,0.37341 -0.83061,0.5031 -1.27037,0.38946 -0.2609,-0.0646 -0.40307,-0.36536 -0.42753,-0.90056 -0.0245,-0.53582 0.004,-1.20102 0.0851,-1.99626 0.0815,-0.79493 0.17529,-1.6556 0.28128,-2.58058 0.10549,-0.92492 0.15848,-1.80908 0.15848,-2.65314 0,-0.73037 -0.1386,-1.432 -0.4153,-2.10586 -0.27721,-0.67295 -0.65582,-1.23317 -1.13584,-1.6794 -0.48053,-0.44659 -1.03851,-0.74276 -1.67344,-0.8885 -0.63544,-0.1464 -1.31928,-0.0488 -2.05205,0.29184 -0.73327,0.34095 -1.31572,0.81959 -1.74682,1.43633 -0.43211,0.61704 -0.82703,1.26588 -1.18526,1.94749 -0.13045,-0.51946 -0.32154,-1.00182 -0.57429,-1.44841 -0.25224,-0.44624 -0.56155,-0.8357 -0.92793,-1.16861 -0.3669,-0.33229 -0.77863,-0.59202 -1.23368,-0.77888 -0.45607,-0.1862 -0.93711,-0.27976 -1.44209,-0.27976 -0.48817,0 -0.94017,0.0936 -1.35547,0.27976 -0.4153,0.18686 -0.79391,0.4259 -1.13635,0.71804 -0.34192,0.29244 -0.65123,0.62076 -0.92844,0.98608 -0.2767,0.36505 -0.52129,0.72639 -0.73276,1.08309 -0.0331,-0.42187 -0.0693,-0.79091 -0.10956,-1.10781 -0.0413,-0.31619 -0.11466,-0.58397 -0.22014,-0.80293 -0.10599,-0.21927 -0.25631,-0.38539 -0.45199,-0.49908 -0.19568,-0.11333 -0.47237,-0.17045 -0.8306,-0.17045 -0.17937,0 -0.35874,0.0364 -0.5376,0.1093 -0.17937,0.0732 -0.33836,0.17484 -0.47645,0.30452 -0.13861,0.13035 -0.24409,0.28812 -0.31747,0.47467 -0.0734,0.18655 -0.0932,0.4018 -0.0611,0.64512 0.0163,0.17881 0.0611,0.39349 0.13453,0.64517 0.0729,0.25168 0.14217,0.58061 0.2074,0.98577 0.0652,0.40582 0.11822,0.89685 0.15898,1.47282 0.0408,0.57628 0.0525,1.28224 0.0367,2.11794 -0.0168,0.836 -0.0774,1.81342 -0.18344,2.9332 -0.106,1.11984 -0.27314,2.41813 -0.50091,3.89467 -0.0326,0.3409 0.0978,0.61704 0.39135,0.82795 0.293,0.21061 0.62677,0.3323 1.00131,0.36501 0.37454,0.0325 0.7292,-0.0327 1.06297,-0.19455 0.33377,-0.16276 0.52537,-0.44654 0.57378,-0.85206 0.0489,-0.76278 0.14268,-1.57407 0.28128,-2.43449 0.1381,-0.85975 0.30931,-1.71181 0.51314,-2.55586 0.20332,-0.8437 0.43518,-1.64694 0.69608,-2.41008 0.26039,-0.76278 0.54983,-1.43603 0.86729,-2.02035 0.31798,-0.58428 0.64767,-1.05064 0.98959,-1.3996 0.34193,-0.34895 0.70016,-0.52348 1.0752,-0.52348 0.45556,0 0.80971,0.20663 1.06246,0.62045 0.25224,0.41413 0.4311,0.94592 0.5376,1.59446 0.10548,0.6495 0.1544,1.35979 0.14676,2.13032 -0.009,0.77083 -0.0413,1.51323 -0.0978,2.22724 -0.0571,0.71432 -0.1223,1.35113 -0.19567,1.91105 -0.0734,0.55992 -0.12638,0.94562 -0.15848,1.15623 0,0.37341 0.14217,0.66927 0.42702,0.88854 0.28485,0.21891 0.60232,0.34895 0.9529,0.38941 0.35059,0.0408 0.67977,-0.0244 0.98959,-0.19486 0.30931,-0.1705 0.48868,-0.458 0.5376,-0.86413 0.16256,-1.1683 0.38677,-2.34057 0.67162,-3.51723 0.28485,-1.1766 0.61098,-2.23127 0.97736,-3.16455 0.36639,-0.93328 0.77353,-1.69606 1.22145,-2.28839 0.44791,-0.59202 0.92436,-0.88854 1.42935,-0.88854 0.26039,0 0.46015,0.17881 0.59824,0.53551 0.1386,0.357 0.20791,0.84375 0.20791,1.46048 0,0.4546 -0.0367,0.92121 -0.10956,1.3999 -0.0739,0.4787 -0.15899,0.97375 -0.25683,1.48485 -0.0978,0.51141 -0.18344,1.03459 -0.25682,1.5701 -0.0729,0.53581 -0.10956,1.09537 -0.10956,1.6797 0,0.40578 0.0408,0.87642 0.1223,1.41193 0.081,0.5352 0.23542,1.04294 0.46371,1.52128 0.22829,0.479 0.54168,0.88451 0.94118,1.21711 0.399,0.3326 0.90755,0.49908 1.52617,0.49908 0.92895,0 1.7509,-0.19889 2.46787,-0.59635 0.71646,-0.39747 1.33151,-0.91662 1.84465,-1.55772 0.0265,-0.0337 0.051,-0.0695 0.0769,-0.10283 0.0392,0.0948 0.0739,0.19517 0.11822,0.28531 0.35007,0.71401 0.82652,1.26558 1.42935,1.65535 0.60231,0.38941 1.31113,0.60435 2.12594,0.64512 0.81379,0.0401 1.70146,-0.10992 2.66303,-0.45057 0.71595,-0.25973 1.33916,-0.58432 1.8686,-0.97374 0.52894,-0.38942 1.00539,-0.86408 1.42885,-1.424 0.42396,-0.55992 0.81022,-1.20504 1.1608,-1.93511 0.35059,-0.73067 0.70423,-1.56607 1.06246,-2.50771 0.0652,-0.25907 0.004,-0.49041 -0.18293,-0.69358 -0.18753,-0.2026 -0.41531,-0.34467 -0.68436,-0.42621 z"
     fill="#0d0c23"
     id="path18"
     style="stroke-width:0.509573" />
  <path
     fill-rule="evenodd"
     clip-rule="evenodd"
     d="m 173.96471,38.494783 c -0.0815,0.479 -0.19109,1.00677 -0.3297,1.58243 -0.1386,0.57628 -0.31338,1.17263 -0.52537,1.78937 -0.21147,0.61668 -0.47237,1.17258 -0.78168,1.66732 -0.30931,0.49536 -0.66398,0.88849 -1.06246,1.18068 -0.39951,0.29214 -0.85914,0.41383 -1.38044,0.36501 -0.2609,-0.0321 -0.46065,-0.21061 -0.59874,-0.53551 -0.13861,-0.32424 -0.21148,-0.73837 -0.22014,-1.24147 -0.008,-0.5028 0.0367,-1.05467 0.13453,-1.6553 0.0978,-0.60007 0.24816,-1.18868 0.4525,-1.76496 0.20332,-0.57566 0.45148,-1.10745 0.74449,-1.5945 0.29351,-0.4867 0.63136,-0.86409 1.01405,-1.13182 0.38269,-0.26778 0.80257,-0.39313 1.25813,-0.37739 0.45607,0.0164 0.94475,0.24332 1.46604,0.68156 -0.0331,0.21127 -0.0897,0.5562 -0.17121,1.03458 z m 8.68516,1.86224 c -0.25275,-0.12974 -0.51314,-0.15782 -0.78168,-0.085 -0.26855,0.0729 -0.46015,0.32058 -0.57378,0.74245 -0.0652,0.45459 -0.21198,0.9898 -0.43976,1.60648 -0.22829,0.61674 -0.50958,1.20137 -0.84284,1.75263 -0.33428,0.55187 -0.71697,1.01048 -1.14858,1.37549 -0.4316,0.36536 -0.89175,0.53184 -1.37992,0.49877 -0.40766,-0.0321 -0.69302,-0.23904 -0.85506,-0.62041 -0.16358,-0.38141 -0.24868,-0.8598 -0.25683,-1.43638 -0.009,-0.57567 0.0489,-1.22481 0.17071,-1.94713 0.1223,-0.72207 0.26905,-1.44011 0.43976,-2.15473 0.17122,-0.71371 0.34651,-1.3996 0.52588,-2.05679 0.17886,-0.65715 0.32511,-1.21304 0.43976,-1.66732 0.12994,-0.40583 0.0892,-0.75045 -0.1223,-1.0349 -0.21198,-0.28352 -0.47645,-0.48674 -0.79391,-0.60838 -0.31797,-0.12168 -0.64003,-0.15414 -0.96564,-0.0973 -0.32562,0.0569 -0.53709,0.23134 -0.63493,0.52317 -0.96106,-0.82764 -1.88542,-1.27393 -2.77259,-1.33875 -0.88818,-0.0649 -1.70656,0.13 -2.45563,0.58428 -0.74958,0.45428 -1.41305,1.11148 -1.9909,1.9719 -0.57837,0.86036 -1.04667,1.79736 -1.40541,2.81156 -0.35823,1.01416 -0.58193,2.04905 -0.67161,3.10371 -0.0897,1.05492 -0.0204,2.01664 0.2079,2.88475 0.22829,0.86811 0.63085,1.5784 1.20922,2.12966 0.57786,0.55186 1.36413,0.828 2.35779,0.828 0.43977,0 0.86322,-0.0893 1.27037,-0.26778 0.40664,-0.17881 0.78169,-0.38972 1.12361,-0.63309 0.34192,-0.24337 0.64308,-0.49908 0.90449,-0.76681 0.25988,-0.26778 0.46371,-0.49072 0.61047,-0.66953 0.11363,0.58428 0.30116,1.07964 0.56206,1.48515 0.25988,0.40547 0.55747,0.73868 0.89124,0.9978 0.33377,0.25942 0.68436,0.45026 1.05074,0.57225 0.36639,0.12169 0.72105,0.18253 1.06246,0.18253 0.76589,0 1.48184,-0.25973 2.1504,-0.77919 0.66754,-0.51879 1.26629,-1.15622 1.79574,-1.91069 0.52893,-0.75478 0.96513,-1.54972 1.30654,-2.38572 0.34244,-0.83565 0.57022,-1.5781 0.68436,-2.22755 0.11414,-0.24337 0.0932,-0.49877 -0.0611,-0.7665 -0.15491,-0.26778 -0.35823,-0.46636 -0.61098,-0.59666 z"
     fill="#0d0c23"
     id="path19"
     style="stroke-width:0.509573" />
  <path
     fill-rule="evenodd"
     clip-rule="evenodd"
     d="m 226.62655,53.796143 c -0.1381,0.55136 -0.35416,1.01864 -0.64767,1.3998 -0.29301,0.38116 -0.65939,0.5799 -1.09915,0.59671 -0.2767,0.0158 -0.48868,-0.13045 -0.63544,-0.43823 -0.14625,-0.3088 -0.24816,-0.70627 -0.30523,-1.19291 -0.0571,-0.48715 -0.0815,-1.03087 -0.0734,-1.63114 0.008,-0.60028 0.0326,-1.19292 0.0734,-1.77709 0.0402,-0.58397 0.0897,-1.12814 0.14675,-1.63089 0.0566,-0.50341 0.10141,-0.89221 0.13402,-1.1683 0.55391,0.0648 1.01456,0.30386 1.38043,0.71799 0.36639,0.41383 0.64767,0.9046 0.84284,1.47282 0.19567,0.56792 0.30931,1.18083 0.34243,1.83767 0.0321,0.65735 -0.0209,1.26171 -0.15898,1.81357 z m -8.84416,0 c -0.13809,0.55136 -0.35415,1.01864 -0.64715,1.3998 -0.29301,0.38116 -0.6599,0.5799 -1.09966,0.59671 -0.2767,0.0158 -0.48817,-0.13045 -0.63493,-0.43823 -0.14676,-0.3088 -0.24867,-0.70627 -0.30524,-1.19291 -0.0576,-0.48715 -0.082,-1.03087 -0.0734,-1.63114 0.008,-0.60028 0.0321,-1.19292 0.0734,-1.77709 0.0403,-0.58397 0.0892,-1.12814 0.14625,-1.63089 0.0571,-0.50341 0.10141,-0.89221 0.13453,-1.1683 0.5534,0.0648 1.01405,0.30386 1.37992,0.71799 0.3669,0.41383 0.64767,0.9046 0.84335,1.47282 0.19567,0.56792 0.30931,1.18083 0.34192,1.83767 0.0321,0.65735 -0.0209,1.26171 -0.15899,1.81357 z m -9.07549,-13.8265 c -0.0168,0.38911 -0.0535,0.73409 -0.11058,1.03428 -0.0571,0.3008 -0.13402,0.49103 -0.23186,0.57225 -0.17937,-0.0976 -0.3995,-0.34865 -0.65989,-0.75478 -0.2604,-0.40546 -0.46372,-0.86439 -0.61098,-1.37554 -0.14625,-0.5111 -0.1916,-1.01385 -0.13402,-1.5092 0.0566,-0.49475 0.31339,-0.87988 0.76945,-1.15627 0.17886,-0.0973 0.33378,-0.0609 0.46423,0.10966 0.13045,0.17045 0.23593,0.4178 0.31797,0.74239 0.081,0.32491 0.13758,0.69797 0.17071,1.11984 0.0326,0.42213 0.0408,0.82765 0.025,1.21737 z m -2.16263,4.85634 c -0.25275,0.26742 -0.53404,0.49872 -0.84284,0.69363 -0.30982,0.19486 -0.62728,0.3409 -0.9529,0.43823 -0.32613,0.0976 -0.61913,0.12163 -0.87952,0.0729 -0.73277,-0.14579 -1.29483,-0.46264 -1.68567,-0.94934 -0.39084,-0.48674 -0.63951,-1.05869 -0.745,-1.71583 -0.10599,-0.6575 -0.0943,-1.35949 0.0367,-2.10591 0.12994,-0.74643 0.34957,-1.44006 0.65939,-2.0812 0.30931,-0.64115 0.68436,-1.19302 1.12361,-1.6553 0.43976,-0.46264 0.92029,-0.75045 1.44158,-0.86444 -0.19567,0.82765 -0.26039,1.68404 -0.19567,2.56825 0.0652,0.88446 0.2772,1.71614 0.63543,2.49497 0.22778,0.47131 0.50091,0.90088 0.81838,1.29029 0.31797,0.38977 0.70474,0.72237 1.16081,0.99815 -0.13045,0.27609 -0.32205,0.54785 -0.57429,0.81563 z m 27.03285,-4.61297 c 0.0489,-0.37305 0.12179,-0.76716 0.22014,-1.18098 0.0973,-0.41352 0.21962,-0.81527 0.36587,-1.20474 0.14676,-0.38972 0.31798,-0.72634 0.51365,-1.01017 0.19568,-0.28378 0.40256,-0.487 0.6227,-0.60869 0.22014,-0.12168 0.44384,-0.10961 0.67162,0.0364 0.24459,0.1464 0.39492,0.45459 0.45199,0.92492 0.0571,0.471 0,0.97375 -0.17071,1.50956 -0.17121,0.53551 -0.47645,1.03861 -0.91621,1.50895 -0.43925,0.47125 -1.03443,0.77919 -1.78351,0.92523 -0.0326,-0.22696 -0.0245,-0.52715 0.0245,-0.90052 z m 9.84598,0 c 0.0489,-0.37305 0.12178,-0.76716 0.21962,-1.18098 0.0978,-0.41352 0.22014,-0.81527 0.36689,-1.20474 0.14625,-0.38972 0.31696,-0.72634 0.51263,-1.01017 0.19568,-0.28378 0.40359,-0.487 0.62321,-0.60869 0.22014,-0.12168 0.44384,-0.10961 0.67162,0.0364 0.2446,0.1464 0.39492,0.45459 0.45199,0.92492 0.0571,0.471 0,0.97375 -0.17071,1.50956 -0.17121,0.53551 -0.47645,1.03861 -0.91621,1.50895 -0.43976,0.47125 -1.03443,0.77919 -1.7835,0.92523 -0.0326,-0.22696 -0.0245,-0.52715 0.0245,-0.90052 z m 9.14938,1.42401 c -0.18752,-0.20261 -0.4153,-0.34468 -0.68385,-0.42621 -0.26905,-0.0809 -0.52537,-0.0889 -0.76996,-0.0241 -0.24409,0.0648 -0.39951,0.23532 -0.46422,0.5111 -0.13045,0.51946 -0.33785,1.05094 -0.6227,1.59415 -0.28536,0.54417 -0.63544,1.0593 -1.05074,1.54599 -0.4153,0.4867 -0.8836,0.91723 -1.40438,1.29029 -0.52181,0.37337 -1.06705,0.64115 -1.63675,0.80294 -0.57072,0.17911 -1.0431,0.19919 -1.41764,0.0612 -0.37453,-0.13774 -0.67161,-0.37306 -0.89175,-0.70566 -0.21962,-0.33291 -0.3781,-0.7344 -0.47645,-1.20535 -0.0973,-0.47033 -0.15491,-0.95708 -0.17071,-1.46043 0.92845,0.0651 1.75497,-0.101 2.47959,-0.49908 0.72461,-0.39747 1.33966,-0.92528 1.84516,-1.58243 0.50448,-0.65689 0.88717,-1.39531 1.14756,-2.21491 0.26039,-0.81965 0.40715,-1.63496 0.44027,-2.44656 0.0158,-0.76278 -0.0983,-1.40795 -0.34243,-1.93541 -0.24409,-0.52715 -0.57378,-0.93731 -0.98908,-1.22914 -0.41582,-0.29245 -0.89176,-0.46264 -1.42987,-0.51141 -0.53709,-0.0488 -1.08284,0.0247 -1.63674,0.21896 -0.66806,0.22758 -1.23368,0.59666 -1.69739,1.10777 -0.46422,0.5114 -0.8515,1.10404 -1.16081,1.77698 -0.30982,0.67386 -0.55391,1.39959 -0.73328,2.17878 -0.17937,0.77888 -0.30931,1.54599 -0.39033,2.30047 -0.0795,0.7322 -0.1223,1.43297 -0.13198,2.10372 -0.0617,0.13371 -0.12739,0.26809 -0.19822,0.40333 -0.28536,0.54417 -0.63544,1.0593 -1.05074,1.54599 -0.4148,0.4867 -0.8836,0.91723 -1.40439,1.29029 -0.52129,0.37337 -1.06704,0.64115 -1.63675,0.80294 -0.57072,0.17911 -1.04258,0.19919 -1.41712,0.0612 -0.37504,-0.13774 -0.67213,-0.37306 -0.89175,-0.70566 -0.21963,-0.33291 -0.37861,-0.7344 -0.47645,-1.20535 -0.0978,-0.47033 -0.15491,-0.95708 -0.17122,-1.46043 0.92844,0.0651 1.75497,-0.101 2.48009,-0.49908 0.72411,-0.39747 1.33916,-0.92528 1.84415,-1.58243 0.50499,-0.65689 0.88768,-1.39531 1.14807,-2.21491 0.26039,-0.81965 0.40766,-1.63496 0.43976,-2.44656 0.0163,-0.76278 -0.0973,-1.40795 -0.34141,-1.93541 -0.2446,-0.52715 -0.5748,-0.93731 -0.99011,-1.22914 -0.4153,-0.29245 -0.89124,-0.46264 -1.42884,-0.51141 -0.5376,-0.0488 -1.08335,0.0247 -1.63675,0.21896 -0.66856,0.22758 -1.23418,0.59666 -1.6979,1.10777 -0.46422,0.5114 -0.85149,1.10404 -1.1608,1.77698 -0.30931,0.67386 -0.5534,1.39959 -0.73277,2.17878 -0.17937,0.77888 -0.30982,1.54599 -0.39084,2.30047 -0.0464,0.42554 -0.0769,0.83814 -0.0999,1.24331 -0.15746,0.13345 -0.31084,0.26778 -0.47441,0.39965 -0.56155,0.45459 -1.15266,0.86409 -1.77128,1.22945 -0.61913,0.36531 -1.26272,0.6655 -1.92975,0.90083 -0.66856,0.23532 -1.35241,0.37738 -2.05256,0.4259 l 1.51496,-16.16377 c 0.0978,-0.34095 0.0489,-0.64078 -0.14676,-0.90051 -0.19516,-0.25973 -0.44791,-0.43824 -0.75722,-0.53551 -0.30931,-0.0976 -0.63952,-0.0893 -0.98959,0.0241 -0.35059,0.11394 -0.63901,0.37367 -0.8673,0.77883 -0.11414,0.61704 -0.23236,1.46074 -0.35415,2.53176 -0.1223,1.07102 -0.2446,2.23963 -0.36638,3.50551 -0.1223,1.26588 -0.2446,2.57222 -0.36639,3.91903 -0.12229,1.34741 -0.22829,2.60498 -0.31797,3.77328 -0.004,0.0519 -0.007,0.0988 -0.0112,0.15007 -0.14268,0.12047 -0.28078,0.24179 -0.42855,0.36103 -0.56155,0.45459 -1.15266,0.86409 -1.77128,1.22945 -0.61913,0.36531 -1.26221,0.6655 -1.92975,0.90083 -0.66805,0.23532 -1.35241,0.37738 -2.05256,0.4259 l 1.51496,-16.16377 c 0.0978,-0.34095 0.0489,-0.64078 -0.14625,-0.90051 -0.19568,-0.25973 -0.44842,-0.43824 -0.75773,-0.53551 -0.30932,-0.0976 -0.63952,-0.0893 -0.9896,0.0241 -0.35007,0.11394 -0.639,0.37367 -0.86729,0.77883 -0.11414,0.61704 -0.23186,1.46074 -0.35364,2.53176 -0.12281,1.07102 -0.2446,2.23963 -0.3669,3.50551 -0.12229,1.26588 -0.24408,2.57222 -0.36638,3.91903 -0.12179,1.34741 -0.22829,2.60498 -0.31746,3.77328 -0.002,0.0234 -0.004,0.0447 -0.006,0.0682 -0.2558,0.11828 -0.53454,0.22208 -0.83774,0.30916 -0.30931,0.0895 -0.65938,0.14233 -1.05023,0.15843 0.0652,-0.2925 0.11771,-0.61704 0.15848,-0.97405 0.0408,-0.3567 0.0739,-0.73007 0.0983,-1.11984 0.0245,-0.38911 0.0321,-0.77883 0.0245,-1.1683 -0.009,-0.38972 -0.0291,-0.74642 -0.0611,-1.07132 -0.082,-0.6973 -0.23237,-1.35883 -0.45199,-1.98387 -0.22014,-0.62449 -0.51722,-1.14761 -0.89176,-1.5701 -0.37504,-0.42188 -0.84283,-0.70596 -1.4054,-0.85175 -0.56155,-0.1461 -1.21737,-0.0976 -1.96593,0.14579 -1.10832,-0.14579 -2.10556,-0.0442 -2.99323,0.30447 -0.88768,0.34931 -1.65765,0.85608 -2.30888,1.52128 -0.65123,0.66586 -1.18476,1.44841 -1.60006,2.34928 -0.4153,0.90052 -0.69251,1.8258 -0.8306,2.77483 -0.0586,0.40236 -0.0871,0.80294 -0.0958,1.20254 -0.25224,0.51452 -0.52843,0.96417 -0.83265,1.34156 -0.4316,0.53551 -0.87952,0.97374 -1.34374,1.31439 -0.46422,0.3409 -0.92437,0.60063 -1.37992,0.77914 -0.45658,0.17881 -0.86373,0.30049 -1.22196,0.36506 -0.42346,0.0812 -0.83061,0.0895 -1.22145,0.0244 -0.39084,-0.0646 -0.74958,-0.25142 -1.07469,-0.55992 -0.2609,-0.22701 -0.46065,-0.59232 -0.59875,-1.09542 -0.1386,-0.50306 -0.21962,-1.07469 -0.24408,-1.71615 -0.0245,-0.64114 0,-1.31067 0.0729,-2.00832 0.0734,-0.69761 0.19924,-1.35914 0.37861,-1.98388 0.17937,-0.62478 0.40664,-1.18465 0.68436,-1.68006 0.27619,-0.49439 0.60231,-0.84772 0.97736,-1.05864 0.21096,0.0327 0.34192,0.15812 0.39084,0.37709 0.0489,0.21927 0.0606,0.479 0.0362,0.77919 -0.024,0.30044 -0.0606,0.60868 -0.10956,0.92492 -0.0489,0.31655 -0.0734,0.58061 -0.0734,0.79122 0.0815,0.43823 0.24001,0.77919 0.47645,1.02251 0.23594,0.24337 0.50091,0.38574 0.79392,0.4259 0.293,0.0408 0.58193,-0.0281 0.8678,-0.20694 0.28434,-0.1782 0.5162,-0.46228 0.69608,-0.85206 0.0158,0.0164 0.0403,0.0244 0.0729,0.0244 l 0.34243,-3.09138 c 0.0973,-0.42218 0.0321,-0.79524 -0.19567,-1.11978 -0.22829,-0.3246 -0.52945,-0.51141 -0.90399,-0.55992 -0.47237,-0.68161 -1.11189,-1.04259 -1.91803,-1.08335 -0.80615,-0.0405 -1.63267,0.22324 -2.47958,0.79121 -0.5213,0.37367 -0.98144,0.88849 -1.38044,1.54569 -0.3995,0.6575 -0.72461,1.38757 -0.97685,2.19081 -0.25326,0.80324 -0.43212,1.65163 -0.5376,2.54414 -0.10599,0.89247 -0.12637,1.76093 -0.0617,2.60433 0.0652,0.84431 0.21606,1.63955 0.4525,2.38567 0.23594,0.74678 0.56563,1.37151 0.98959,1.87431 0.35823,0.43823 0.76487,0.75906 1.22094,0.96197 0.45607,0.20291 0.93252,0.32832 1.42935,0.37709 0.49684,0.0485 0.9896,0.0281 1.47828,-0.0609 0.48868,-0.0889 0.9529,-0.21463 1.39266,-0.37739 0.5697,-0.2106 1.15673,-0.47869 1.75905,-0.80324 0.60231,-0.32429 1.18068,-0.71401 1.73458,-1.1686 0.29148,-0.23904 0.57174,-0.49969 0.84284,-0.77919 0.12331,0.30513 0.26141,0.60038 0.42753,0.87677 0.43976,0.73007 1.03392,1.3227 1.78351,1.77699 0.74856,0.45428 1.66936,0.67294 2.76035,0.65719 1.17304,-0.0164 2.25588,-0.31221 3.24955,-0.88849 0.99367,-0.57566 1.80797,-1.42431 2.4434,-2.54384 0.95138,0 1.88746,-0.15624 2.80775,-0.46662 -0.008,0.0982 -0.0158,0.20164 -0.0229,0.29647 -0.0647,0.86011 -0.0978,1.44408 -0.0978,1.75258 -0.0158,0.53551 -0.0525,1.19673 -0.10955,1.98361 -0.0571,0.78719 -0.0938,1.61489 -0.11007,2.4828 -0.0158,0.86831 0.0163,1.74478 0.0978,2.62939 0.0815,0.88411 0.25223,1.68771 0.51314,2.41029 0.25988,0.72155 0.63034,1.33457 1.11137,1.83803 0.48002,0.50244 1.11138,0.80308 1.89358,0.90041 0.8306,0.11313 1.54706,-0.0326 2.14989,-0.43823 0.60231,-0.40613 1.09099,-0.96157 1.46604,-1.66732 0.37454,-0.70627 0.6385,-1.52159 0.79391,-2.44647 0.15441,-0.92538 0.19925,-1.85433 0.13453,-2.78787 -0.0657,-0.93308 -0.23695,-1.81327 -0.51365,-2.64061 -0.2767,-0.82795 -0.65989,-1.50956 -1.14807,-2.04537 0.29352,-0.0806 0.64309,-0.23471 1.05074,-0.46229 0.40664,-0.22701 0.82602,-0.48272 1.25814,-0.76686 0.10599,-0.0698 0.21045,-0.14329 0.31644,-0.21493 -0.0397,0.57505 -0.0601,0.98515 -0.0601,1.22542 -0.0158,0.53551 -0.0525,1.19673 -0.11007,1.98361 -0.0566,0.78719 -0.0932,1.61489 -0.10956,2.4828 -0.0163,0.86831 0.0163,1.74478 0.0978,2.62939 0.081,0.88411 0.25224,1.68771 0.51263,2.41029 0.26039,0.72155 0.63136,1.33457 1.11138,1.83803 0.48052,0.50244 1.11189,0.80308 1.89408,0.90041 0.8301,0.11313 1.54655,-0.0326 2.14938,-0.43823 0.60283,-0.40613 1.09151,-0.96157 1.46604,-1.66732 0.37454,-0.70627 0.63901,-1.52159 0.79392,-2.44647 0.15491,-0.92538 0.19924,-1.85433 0.13452,-2.78787 -0.0652,-0.93308 -0.23644,-1.81327 -0.51263,-2.64061 -0.27771,-0.82795 -0.65989,-1.50956 -1.14908,-2.04537 0.29351,-0.0806 0.64359,-0.23471 1.05074,-0.46229 0.40714,-0.22701 0.82652,-0.48272 1.25864,-0.76686 0.22421,-0.14757 0.4469,-0.29983 0.66958,-0.45642 0.0836,0.79366 0.26396,1.48979 0.55136,2.07534 0.35059,0.71432 0.82653,1.26588 1.42935,1.6556 0.60232,0.38911 1.31113,0.60436 2.12594,0.64482 0.8143,0.0401 1.70147,-0.10961 2.66303,-0.45057 0.71646,-0.25942 1.33916,-0.58397 1.8686,-0.97344 0.52894,-0.38972 1.00539,-0.86439 1.42936,-1.424 0.0245,-0.0324 0.0474,-0.0676 0.0713,-0.10033 0.0754,0.22727 0.15898,0.44562 0.25835,0.64792 0.35059,0.71432 0.82704,1.26588 1.42935,1.6556 0.60232,0.38911 1.31114,0.60436 2.12543,0.64482 0.8143,0.0401 1.70198,-0.10961 2.66303,-0.45057 0.71697,-0.25942 1.33967,-0.58397 1.86912,-0.97344 0.52893,-0.38972 1.00539,-0.86439 1.42935,-1.424 0.42346,-0.56017 0.80971,-1.20534 1.1603,-1.93541 0.35007,-0.73037 0.70423,-1.56576 1.06297,-2.50735 0.0647,-0.25943 0.004,-0.49072 -0.18345,-0.69363 z"
     fill="#0d0c23"
     id="path20"
     style="stroke-width:0.509573" />
</svg>
